<?xml version="1.0" encoding="utf-8"?>
<!-- Generator: Adobe Illustrator 25.4.1, SVG Export Plug-In . SVG Version: 6.00 Build 0)  -->
<svg version="1.1" id="Layer_1" xmlns="http://www.w3.org/2000/svg" xmlns:xlink="http://www.w3.org/1999/xlink" x="0px" y="0px"
	 width="60px" height="60px" viewBox="0 0 60 60" style="enable-background:new 0 0 60 60;" xml:space="preserve">
<style type="text/css">
	.st0{fill:#8F8083;}
</style>
<path class="st0" d="M52.9,49.4H7.1c-3.9,0-7.1-3.2-7.1-7.1V17.6c0-3.9,3.2-7.1,7.1-7.1H53c3.9,0,7.1,3.2,7.1,7.1v24.7
	C60,46.2,56.8,49.4,52.9,49.4z M7.1,14.1c-1.9,0-3.5,1.6-3.5,3.5v24.7c0,1.9,1.6,3.5,3.5,3.5H53c1.9,0,3.5-1.6,3.5-3.5V17.6
	c0-1.9-1.6-3.5-3.5-3.5H7.1z M0.9,22.1h58.2v5.3H0.9V22.1z M60,28.2H0v-7.1h60V28.2z M1.8,26.5h56.5V23H1.8V26.5z"/>
</svg>
